<svg id="Vrstva_1" data-name="Vrstva 1" xmlns="http://www.w3.org/2000/svg" viewBox="0 0 1923 1085"><defs><style>.cls-1{fill:#1d1d1b;}.cls-2{fill:#fff;}.cls-3{fill:#3c3c3b;}.cls-4{fill:#575756;}.cls-5{fill:#ececec;}.cls-6{fill:#b1b1b1;}.cls-7{fill:#868686;}.cls-8{fill:#c6c6c5;}</style></defs><polygon class="cls-1" points="1612.5 0.5 1920.5 259.5 1921.5 0.5 1612.5 0.5"/><polygon class="cls-2" points="1612.5 0.5 1448 260 1920.5 259.5 1612.5 0.5"/><polygon class="cls-3" points="1 2 3 254 289 3 1 2"/><polygon class="cls-4" points="1612.5 0.5 1530 442 1920.5 259.5 1612.5 0.5"/><polygon class="cls-5" points="289 3 346 319 673 2 289 3"/><polygon class="cls-6" points="3 254 346 319 289 3 3 254"/><polygon class="cls-1" points="673 2 637 365 346 319 673 2"/><polygon class="cls-1" points="1756 816 1919 643 1548 793 1756 816"/><polygon class="cls-6" points="1923 1085 1650 1085 1756 816 1923 1085"/><polygon class="cls-6" points="1530 442 1220 0 1612.5 0.5 1530 442"/><path class="cls-5" d="M636,363c-5,3-475,237-475,237L345,317Z" transform="translate(1 2)"/><polygon class="cls-7" points="3 254 162 602 346 319 3 254"/><path class="cls-6" d="M161,600C161,603,0,762,0,762L2,252Z" transform="translate(1 2)"/><polygon class="cls-4" points="637 365 629 730 162 602 637 365"/><polygon class="cls-6" points="673 2 999 3 637 365 673 2"/><path class="cls-5" d="M628,728c10-3,396-148,396-148L636,363Z" transform="translate(1 2)"/><polygon class="cls-5" points="1548 793 1199 957 1530 442 1548 793"/><polygon class="cls-5" points="999 3 1220 0 1088 342 999 3"/><polygon class="cls-3" points="637 365 1088 342 999 3 637 365"/><polygon class="cls-7" points="1650 1085 1548 793 1756 816 1650 1085"/><polygon class="cls-3" points="1199 957 1548 793 1650 1085 1199 957"/><polygon class="cls-3" points="1025 582 1025 958 629 730 1025 582"/><polygon class="cls-8" points="1086 341 1023 581 635 364 1086 341"/><polygon class="cls-5" points="162 602 1 764 629 730 162 602"/><path class="cls-5" d="M1024,956c-7,4-178,126-178,126H532Z" transform="translate(1 2)"/><polygon class="cls-6" points="629 730 439 1010 1 764 629 730"/><polygon class="cls-6" points="533 1084 629 730 1025 958 533 1084"/><polygon class="cls-3" points="439 1010 629 730 533 1084 439 1010"/><polygon class="cls-3" points="1 764 0 1084 439 1010 1 764"/><polygon class="cls-1" points="533 1084 0 1084 439 1010 533 1084"/><polygon class="cls-4" points="1650 1085 1138 1085 1199 957 1650 1085"/><path class="cls-4" d="M1024,956c1,4,113,127,113,127l-291-1Z" transform="translate(1 2)"/><polygon class="cls-6" points="1199 957 1025 958 1138 1085 1199 957"/><polygon class="cls-7" points="1025 582 1199 957 1025 958 1025 582"/><polygon class="cls-7" points="1530 442 1088 342 1220 0 1530 442"/><polygon class="cls-5" points="1025 582 1199 957 1088 342 1025 582"/><polygon class="cls-8" points="1919 643 1548 793 1530 442 1919 643"/><polygon class="cls-4" points="1923 1085 1756 816 1923 637 1923 1085"/><polygon class="cls-7" points="1920.5 259.5 1530 442 1922 645 1920.5 259.5"/><polygon class="cls-3" points="1530 442 1088 342 1199 957 1530 442"/></svg>