<svg xmlns="http://www.w3.org/2000/svg" xmlns:xlink="http://www.w3.org/1999/xlink" viewBox="0 0 1929 1087"><defs><style>.cls-1{fill:none;}.cls-2{clip-path:url(#clip-path);}.cls-3{fill:#fff;}.cls-4{fill:#575756;}.cls-5{fill:#ececec;}.cls-6{fill:#b1b1b1;}.cls-7{fill:#1d1d1b;}.cls-8{fill:#868686;}.cls-9{fill:#3c3c3b;}.cls-10{fill:#c6c6c5;}</style><clipPath id="clip-path" transform="translate(6 4)"><rect class="cls-1" width="1920" height="1080"/></clipPath></defs><g id="Vrstva_2" data-name="Vrstva 2"><g id="Vrstva_1-2" data-name="Vrstva 1"><g class="cls-2"><polygon class="cls-3" points="1617.5 2.5 1453 262 1925.5 261.5 1617.5 2.5"/><polygon class="cls-4" points="1617.5 2.5 1535 444 1925.5 261.5 1617.5 2.5"/><polygon class="cls-5" points="294 5 351 321 678 4 294 5"/><polygon class="cls-6" points="8 256 351 321 294 5 8 256"/><polygon class="cls-7" points="678 4 642 367 351 321 678 4"/><polygon class="cls-7" points="1761 818 1924 645 1553 795 1761 818"/><polygon class="cls-6" points="1928 1087 1655 1087 1761 818 1928 1087"/><polygon class="cls-6" points="1535 444 1225 2 1617.5 2.5 1535 444"/><path class="cls-5" d="M636,363c-5,3-475,237-475,237L345,317Z" transform="translate(6 4)"/><polygon class="cls-8" points="8 256 167 604 351 321 8 256"/><polygon class="cls-4" points="642 367 634 732 167 604 642 367"/><polygon class="cls-6" points="678 4 1004 5 642 367 678 4"/><path class="cls-5" d="M628,728c10-3,396-148,396-148L636,363Z" transform="translate(6 4)"/><polygon class="cls-5" points="1553 795 1204 959 1535 444 1553 795"/><polygon class="cls-5" points="1004 5 1225 2 1093 344 1004 5"/><polygon class="cls-9" points="642 367 1093 344 1004 5 642 367"/><polygon class="cls-8" points="1655 1087 1553 795 1761 818 1655 1087"/><polygon class="cls-9" points="1204 959 1553 795 1655 1087 1204 959"/><polygon class="cls-9" points="1030 584 1030 960 634 732 1030 584"/><polygon class="cls-10" points="1091 343 1028 583 640 366 1091 343"/><polygon class="cls-5" points="167 604 6 766 634 732 167 604"/><path class="cls-5" d="M1024,956c-7,4-178,126-178,126H532Z" transform="translate(6 4)"/><polygon class="cls-6" points="634 732 444 1012 6 766 634 732"/><polygon class="cls-6" points="538 1086 634 732 1030 960 538 1086"/><polygon class="cls-9" points="444 1012 634 732 538 1086 444 1012"/><polygon class="cls-9" points="6 766 5 1086 444 1012 6 766"/><polygon class="cls-7" points="538 1086 5 1086 444 1012 538 1086"/><polygon class="cls-4" points="1655 1087 1143 1087 1204 959 1655 1087"/><path class="cls-4" d="M1024,956c1,4,113,127,113,127l-291-1Z" transform="translate(6 4)"/><polygon class="cls-8" points="1030 584 1204 959 1030 960 1030 584"/><polygon class="cls-8" points="1535 444 1093 344 1225 2 1535 444"/><polygon class="cls-5" points="1030 584 1204 959 1093 344 1030 584"/><polygon class="cls-10" points="1924 645 1553 795 1535 444 1924 645"/><polygon class="cls-4" points="1928 1087 1761 818 1928 639 1928 1087"/><polygon class="cls-9" points="1535 444 1093 344 1204 959 1535 444"/><polygon class="cls-6" points="167 604 4 248 3 771 167 604"/><polygon class="cls-9" points="294 5 3 260 0 2 304 0 294 5"/><polygon class="cls-8" points="1927 647 1535 444 1929 260 1927 647"/><polygon class="cls-7" points="1616.5 2 1928 2.5 1927 263.5 1616.5 2"/><polygon class="cls-1" points="1204 959 1143 1087 1030 960 1204 959"/></g></g></g></svg>